<?xml version="1.0" encoding="UTF-8" standalone="no" ?>
<!DOCTYPE svg PUBLIC "-//W3C//DTD SVG 1.1//EN" "http://www.w3.org/Graphics/SVG/1.1/DTD/svg11.dtd">
<svg xmlns="http://www.w3.org/2000/svg" xmlns:xlink="http://www.w3.org/1999/xlink" version="1.1" width="258.67" height="113.31687999999998" xml:space="preserve">
<desc>Created with Fabric.js 1.6.0-rc.1</desc>
<defs></defs>
  <g transform="translate(185.31 62.43) scale(0.96 1.59)">
   <text font-family="Bombardier" font-size="40" font-weight="bold" style="stroke: none; stroke-width: 1; stroke-dasharray: none; stroke-linecap: butt; stroke-linejoin: miter; stroke-miterlimit: 10; fill: #009c8f; fill-rule: nonzero; opacity: 1;" ><tspan x="-66.5" y="8.98" style="stroke: none; stroke-width: 0; stroke-dasharray: none; stroke-linecap: butt; stroke-linejoin: miter; stroke-miterlimit: 4; fill: #009c8f; fill-rule: ; opacity: 1;">t</tspan><tspan x="-53.5" y="8.98" style="stroke: none; stroke-width: 0; stroke-dasharray: none; stroke-linecap: butt; stroke-linejoin: miter; stroke-miterlimit: 4; fill: #009c8f; fill-rule: ; opacity: 1;">w</tspan><tspan x="-28.5" y="8.98" style="stroke: none; stroke-width: 0; stroke-dasharray: none; stroke-linecap: butt; stroke-linejoin: miter; stroke-miterlimit: 4; fill: #009c8f; fill-rule: ; opacity: 1;">e</tspan><tspan x="-7.5" y="8.98" style="stroke: none; stroke-width: 0; stroke-dasharray: none; stroke-linecap: butt; stroke-linejoin: miter; stroke-miterlimit: 4; fill: #009c8f; fill-rule: ; opacity: 1;">e</tspan><tspan x="13.5" y="8.98" style="stroke: none; stroke-width: 0; stroke-dasharray: none; stroke-linecap: butt; stroke-linejoin: miter; stroke-miterlimit: 4; fill: #009c8f; fill-rule: ; opacity: 1;">t</tspan><tspan x="26.5" y="8.98" style="stroke: none; stroke-width: 0; stroke-dasharray: none; stroke-linecap: butt; stroke-linejoin: miter; stroke-miterlimit: 4; fill: #009c8f; fill-rule: ; opacity: 1;">c</tspan><tspan x="45.5" y="8.98" style="stroke: none; stroke-width: 0; stroke-dasharray: none; stroke-linecap: butt; stroke-linejoin: miter; stroke-miterlimit: 4; fill: #009c8f; fill-rule: ; opacity: 1;">o</tspan></text>
 </g>
<g style="stroke: none; stroke-width: 1; stroke-dasharray: none; stroke-linecap: butt; stroke-linejoin: miter; stroke-miterlimit: 10; fill: none; fill-rule: nonzero; opacity: 1;" transform="translate(10 10) scale(0.29 0.23)" >
  <path d="M 118.12 206.823 H 84.013 v 0.023 c -0.306 -0.005 -0.608 -0.023 -0.915 -0.023 c -27.644 0 -50.054 22.41 -50.054 50.053 c 0 7.503 1.67 14.609 4.631 20.996 H 23.182 c -2.198 -3.924 -6.455 -6.512 -11.259 -6.333 c -6.833 0.255 -12.165 6.001 -11.914 12.835 c 0.259 6.832 6.002 12.164 12.836 11.91 c 0.348 -0.013 0.689 -0.049 1.028 -0.09 h 38.274 c 0.036 0.029 0.071 0.061 0.108 0.09 h 61.683 c 0.037 -0.029 0.072 -0.061 0.109 -0.09 h 2.545 c 9.144 0 16.558 -7.413 16.558 -16.558 v -57.78 C 133.15 213.553 126.422 206.823 118.12 206.823 z" style="stroke: none; stroke-width: 1; stroke-dasharray: none; stroke-linecap: butt; stroke-linejoin: miter; stroke-miterlimit: 10; fill: #00945E; fill-rule: nonzero; opacity: 1;" transform=" matrix(1 0 0 1 0 0) " stroke-linecap="round" />
  <path d="M 345.412 271.539 c -4.804 -0.179 -9.059 2.409 -11.258 6.333 H 319.66 c 2.961 -6.386 4.631 -13.492 4.631 -20.996 c 0 -27.643 -22.41 -50.053 -50.054 -50.053 c -0.307 0 -0.609 0.018 -0.915 0.023 v -0.023 h -34.106 c -8.302 0 -15.031 6.73 -15.031 15.031 v 57.78 c 0 9.145 7.415 16.558 16.558 16.558 h 2.545 c 0.037 0.029 0.072 0.061 0.109 0.09 h 61.683 c 0.037 -0.029 0.071 -0.061 0.108 -0.09 h 38.274 c 0.34 0.041 0.681 0.077 1.028 0.09 c 6.834 0.255 12.577 -5.078 12.836 -11.91 C 357.577 277.54 352.245 271.793 345.412 271.539 z" style="stroke: none; stroke-width: 1; stroke-dasharray: none; stroke-linecap: butt; stroke-linejoin: miter; stroke-miterlimit: 10; fill: #00945E; fill-rule: nonzero; opacity: 1;" transform=" matrix(1 0 0 1 0 0) " stroke-linecap="round" />
  <path d="M 57.262 174.886 c 0 67.05 54.355 121.405 121.405 121.405 s 121.405 -54.355 121.405 -121.405 H 57.262 z" style="stroke: none; stroke-width: 1; stroke-dasharray: none; stroke-linecap: butt; stroke-linejoin: miter; stroke-miterlimit: 10; fill: #05CE7C; fill-rule: nonzero; opacity: 1;" transform=" matrix(1 0 0 1 0 0) " stroke-linecap="round" />
  <path d="M 82.236 325.983 c -2.913 -8.536 -10.012 -15.133 -18.847 -17.347 h 39.817 L 82.236 325.983 z" style="stroke: none; stroke-width: 1; stroke-dasharray: none; stroke-linecap: butt; stroke-linejoin: miter; stroke-miterlimit: 10; fill: #00945E; fill-rule: nonzero; opacity: 1;" transform=" matrix(1 0 0 1 0 0) " stroke-linecap="round" />
  <path d="M 120.492 215.229 c -10.858 0 -19.66 8.803 -19.66 19.66 v 59.086 H 78.747 c -2.198 -3.924 -6.455 -6.512 -11.259 -6.333 c -6.833 0.255 -12.165 6.001 -11.914 12.835 c 0.259 6.832 6.002 12.165 12.836 11.91 c 0.348 -0.013 0.688 -0.049 1.028 -0.09 h 25.929 l -2.48 1.636 c -1.042 -0.24 -2.128 -0.362 -3.248 -0.321 c -6.832 0.255 -12.164 6.001 -11.914 12.835 c 0.259 6.832 6.002 12.164 12.836 11.91 c 5.935 -0.221 10.728 -4.585 11.725 -10.201 l 24.512 -16.174 c 7.61 -1.493 13.355 -8.194 13.355 -16.242 v -60.851 C 140.15 224.032 131.349 215.229 120.492 215.229 z" style="stroke: none; stroke-width: 1; stroke-dasharray: none; stroke-linecap: butt; stroke-linejoin: miter; stroke-miterlimit: 10; fill: #28B07F; fill-rule: nonzero; opacity: 1;" transform=" matrix(1 0 0 1 0 0) " stroke-linecap="round" />
  <path d="M 275.099 325.983 c 2.913 -8.536 10.012 -15.133 18.847 -17.347 h -39.817 L 275.099 325.983 z" style="stroke: none; stroke-width: 1; stroke-dasharray: none; stroke-linecap: butt; stroke-linejoin: miter; stroke-miterlimit: 10; fill: #00945E; fill-rule: nonzero; opacity: 1;" transform=" matrix(1 0 0 1 0 0) " stroke-linecap="round" />
  <path d="M 236.844 215.229 c 10.858 0 19.66 8.803 19.66 19.66 v 59.086 h 22.085 c 2.198 -3.924 6.455 -6.512 11.259 -6.333 c 6.833 0.255 12.165 6.001 11.914 12.835 c -0.259 6.832 -6.002 12.165 -12.836 11.91 c -0.348 -0.013 -0.688 -0.049 -1.028 -0.09 h -25.929 l 2.48 1.636 c 1.042 -0.24 2.128 -0.362 3.248 -0.321 c 6.832 0.255 12.164 6.001 11.914 12.835 c -0.259 6.832 -6.002 12.164 -12.836 11.91 c -5.935 -0.221 -10.728 -4.585 -11.725 -10.201 l -24.512 -16.174 c -7.61 -1.493 -13.355 -8.194 -13.355 -16.242 v -60.851 C 217.184 224.032 225.986 215.229 236.844 215.229 z" style="stroke: none; stroke-width: 1; stroke-dasharray: none; stroke-linecap: butt; stroke-linejoin: miter; stroke-miterlimit: 10; fill: #28B07F; fill-rule: nonzero; opacity: 1;" transform=" matrix(1 0 0 1 0 0) " stroke-linecap="round" />
  <path d="M 244.195 53.061 c 41.476 0 75.099 33.622 75.099 75.098 s -33.623 75.098 -75.099 75.098 H 113.14 c -41.477 0 -75.099 -33.622 -75.099 -75.098 s 33.622 -75.098 75.099 -75.098 C 113.14 53.061 244.195 53.061 244.195 53.061 z" style="stroke: none; stroke-width: 1; stroke-dasharray: none; stroke-linecap: butt; stroke-linejoin: miter; stroke-miterlimit: 10; fill: #05CE7C; fill-rule: nonzero; opacity: 1;" transform=" matrix(1 0 0 1 0 0) " stroke-linecap="round" />
  <path d="M 113.14 53.061 c -41.476 0 -75.099 33.622 -75.099 75.098 s 33.623 75.098 75.099 75.098 h 131.055 c 41.477 0 75.099 -33.622 75.099 -75.098 s -33.622 -75.098 -75.099 -75.098 C 244.195 53.061 113.14 53.061 113.14 53.061 z" style="stroke: none; stroke-width: 1; stroke-dasharray: none; stroke-linecap: butt; stroke-linejoin: miter; stroke-miterlimit: 10; fill: #05CE7C; fill-rule: nonzero; opacity: 1;" transform=" matrix(1 0 0 1 0 0) " stroke-linecap="round" />
  <path d="M 150.527 53.061 c 0 5.069 4.109 9.179 9.179 9.179 c 5.069 0 9.179 -4.11 9.179 -9.179 H 150.527 z" style="stroke: none; stroke-width: 1; stroke-dasharray: none; stroke-linecap: butt; stroke-linejoin: miter; stroke-miterlimit: 10; fill: #00B070; fill-rule: nonzero; opacity: 1;" transform=" matrix(1 0 0 1 0 0) " stroke-linecap="round" />
  <path d="M 177.064 53.061 c 0 6.817 5.527 12.345 12.345 12.345 c 6.818 0 12.346 -5.528 12.346 -12.345 C 201.755 53.061 177.064 53.061 177.064 53.061 z" style="stroke: none; stroke-width: 1; stroke-dasharray: none; stroke-linecap: butt; stroke-linejoin: miter; stroke-miterlimit: 10; fill: #00B070; fill-rule: nonzero; opacity: 1;" transform=" matrix(1 0 0 1 0 0) " stroke-linecap="round" />
  <circle cx="177.06199999999998" cy="71.61200000000001" r="5.272" style="stroke: none; stroke-width: 1; stroke-dasharray: none; stroke-linecap: butt; stroke-linejoin: miter; stroke-miterlimit: 10; fill: #00B070; fill-rule: nonzero; opacity: 1;" transform="  matrix(1 0 0 1 0 0) "/>
  <circle cx="118.683" cy="53.063" r="34.093" style="stroke: none; stroke-width: 1; stroke-dasharray: none; stroke-linecap: butt; stroke-linejoin: miter; stroke-miterlimit: 10; fill: #05CE7C; fill-rule: nonzero; opacity: 1;" transform="  matrix(1 0 0 1 0 0) "/>
  <circle cx="118.677" cy="53.057" r="22.947" style="stroke: none; stroke-width: 1; stroke-dasharray: none; stroke-linecap: butt; stroke-linejoin: miter; stroke-miterlimit: 10; fill: #FFFFFF; fill-rule: nonzero; opacity: 1;" transform="  matrix(1 0 0 1 0 0) "/>
  <path d="M 129.17 57.65 h -20.981 c -2.534 0 -4.589 -2.055 -4.589 -4.589 c 0 -2.535 2.055 -4.59 4.589 -4.59 h 20.981 c 2.534 0 4.59 2.055 4.59 4.59 S 131.704 57.65 129.17 57.65 z" style="stroke: none; stroke-width: 1; stroke-dasharray: none; stroke-linecap: butt; stroke-linejoin: miter; stroke-miterlimit: 10; fill: #333E48; fill-rule: nonzero; opacity: 1;" transform=" matrix(1 0 0 1 0 0) " stroke-linecap="round" />
  <circle cx="238.65300000000002" cy="53.063" r="34.093" style="stroke: none; stroke-width: 1; stroke-dasharray: none; stroke-linecap: butt; stroke-linejoin: miter; stroke-miterlimit: 10; fill: #05CE7C; fill-rule: nonzero; opacity: 1;" transform="  matrix(1 0 0 1 0 0) "/>
  <circle cx="238.657" cy="53.057" r="22.947" style="stroke: none; stroke-width: 1; stroke-dasharray: none; stroke-linecap: butt; stroke-linejoin: miter; stroke-miterlimit: 10; fill: #FFFFFF; fill-rule: nonzero; opacity: 1;" transform="  matrix(1 0 0 1 0 0) "/>
  <path d="M 249.146 57.65 h -20.98 c -2.534 0 -4.59 -2.055 -4.59 -4.589 c 0 -2.535 2.056 -4.59 4.59 -4.59 h 20.98 c 2.534 0 4.59 2.055 4.59 4.59 S 251.68 57.65 249.146 57.65 z" style="stroke: none; stroke-width: 1; stroke-dasharray: none; stroke-linecap: butt; stroke-linejoin: miter; stroke-miterlimit: 10; fill: #333E48; fill-rule: nonzero; opacity: 1;" transform=" matrix(1 0 0 1 0 0) " stroke-linecap="round" />
  <path d="M 315.61 128.159 c 4.661 0 8.439 3.779 8.439 8.44 c 0 0.257 -0.011 0.512 -0.033 0.763 l 0.001 -0.032 c -4.563 39.999 -38.621 71.172 -79.822 71.172 H 113.14 c -41.201 0 -75.259 -31.173 -79.822 -71.172 l 0.001 0.032 c -0.023 -0.251 -0.033 -0.506 -0.033 -0.763 c 0 -4.661 3.778 -8.44 8.439 -8.44 H 315.61 z" style="stroke: none; stroke-width: 1; stroke-dasharray: none; stroke-linecap: butt; stroke-linejoin: miter; stroke-miterlimit: 10; fill: #00945E; fill-rule: nonzero; opacity: 1;" transform=" matrix(1 0 0 1 0 0) " stroke-linecap="round" />
</g>
<g style="stroke: none; stroke-width: 1; stroke-dasharray: none; stroke-linecap: butt; stroke-linejoin: miter; stroke-miterlimit: 10; fill: none; fill-rule: nonzero; opacity: 1;" transform="translate(90.99000000000001 10) scale(0.26 0.26)" >
  <path d="M 362.008 323.437 s 18.261 6.64 17.224 47.104 c 0 0 -2.905 13.696 14.318 8.924 c 17.224 -4.773 21.581 -10.584 13.903 -17.224 c -7.678 -6.641 2.49 -17.224 -1.453 -20.751 c -3.942 -3.528 -10.428 -14.077 4.021 -23.121 l -13.358 -8.629 l -34.655 13.697 z" style="stroke: none; stroke-width: 1; stroke-dasharray: none; stroke-linecap: butt; stroke-linejoin: miter; stroke-miterlimit: 10; fill: #e75845; fill-rule: nonzero; opacity: 1;" transform=" matrix(0.9999976622785315 0 0 0.9999976622785315 -342.72719879739657 -179.42358055666324) " stroke-linecap="round" />
  <path d="M 433.6 236.281 l -8.939 -5.542 s -33.394 43.725 -80.291 54.1 c 0 0 -5.374 -0.006 3.32 26.562 c 7.471 22.826 15.355 17.432 15.355 17.432 s 40.783 -14.082 88.517 -8.943 L 433.6 236.281 z" style="stroke: none; stroke-width: 1; stroke-dasharray: none; stroke-linecap: butt; stroke-linejoin: miter; stroke-miterlimit: 10; fill: #46a4b5; fill-rule: nonzero; opacity: 1;" transform=" matrix(0.9999976622785315 0 0 0.9999976622785315 -342.72719879739657 -179.42358055666324) " stroke-linecap="round" />
  <ellipse cx="443.392" cy="272.76099999999997" rx="22.412" ry="48.351" style="stroke: none; stroke-width: 1; stroke-dasharray: none; stroke-linecap: butt; stroke-linejoin: miter; stroke-miterlimit: 10; fill: #373b27; fill-rule: nonzero; opacity: 0;" transform=" matrix(0.9690996257994321 -0.24666017075711377 0.24666017075711377 0.9690996257994321 -342.72719879739657 -179.42358055666324) "/>
  <path d="M 441.209 295.354 s 22.688 -6.917 43.992 11.62 l -14.388 14.941 s -9.406 -21.858 -29.604 -26.561 z m -5.258 -32.649 s 65.852 -4.98 74.151 -76.918 l -17.153 -6.363 s 11.897 52.57 -56.998 83.281 z" style="stroke: none; stroke-width: 1; stroke-dasharray: none; stroke-linecap: butt; stroke-linejoin: miter; stroke-miterlimit: 10; fill: #46a4b5; fill-rule: nonzero; opacity: 1;" transform=" matrix(0.9999976622785315 0 0 0.9999976622785315 -342.72719879739657 -179.42358055666324) " stroke-linecap="round" />
  <path d="M 456.703 271.766 s 70.83 -16.29 74.98 22.324 c 0 0 2.49 21.737 -25.73 30.592 l -11.731 -11.621 s 25.314 -1.997 24.459 -20.474 c -0.857 -18.477 -61.978 -20.821 -61.978 -20.821 z" style="stroke: none; stroke-width: 1; stroke-dasharray: none; stroke-linecap: butt; stroke-linejoin: miter; stroke-miterlimit: 10; fill: #e75845; fill-rule: nonzero; opacity: 1;" transform=" matrix(0.9999976622785315 0 0 0.9999976622785315 -342.72719879739657 -179.42358055666324) " stroke-linecap="round" />
  <circle cx="469.428" cy="209.308" r="8.578" style="stroke: none; stroke-width: 1; stroke-dasharray: none; stroke-linecap: butt; stroke-linejoin: miter; stroke-miterlimit: 10; fill: #e75845; fill-rule: nonzero; opacity: 1;" transform="  matrix(0.9999976622785315 0 0 0.9999976622785315 -342.72719879739657 -179.42358055666324) "/>
  <circle cx="525.4830000000001" cy="208.64299999999997" r="6.253" style="stroke: none; stroke-width: 1; stroke-dasharray: none; stroke-linecap: butt; stroke-linejoin: miter; stroke-miterlimit: 10; fill: #e75845; fill-rule: nonzero; opacity: 1;" transform="  matrix(0.9999976622785315 0 0 0.9999976622785315 -342.72719879739657 -179.42358055666324) "/>
  <circle cx="513.833" cy="247.073" r="8.993" style="stroke: none; stroke-width: 1; stroke-dasharray: none; stroke-linecap: butt; stroke-linejoin: miter; stroke-miterlimit: 10; fill: #46a4b5; fill-rule: nonzero; opacity: 1;" transform="  matrix(0.9999976622785315 0 0 0.9999976622785315 -342.72719879739657 -179.42358055666324) "/>
  <path d="M 549.88 270.169 l -3.577 9.538 l -5.395 -8.643 l -10.178 -0.456 l 6.553 -7.799 l -2.709 -9.821 l 9.443 3.822 l 8.503 -5.613 l -0.717 10.161 l 7.963 6.352 z" style="stroke: none; stroke-width: 1; stroke-dasharray: none; stroke-linecap: butt; stroke-linejoin: miter; stroke-miterlimit: 10; fill: #e75845; fill-rule: nonzero; opacity: 1;" transform=" matrix(0.9999976622785315 0 0 0.9999976622785315 -342.72719879739657 -179.42358055666324) " stroke-linecap="round" />
  <path d="M 345.078 286.75 s -1.25 2.25 0 4.5 c 0 0 42.5 0 71.5 -44.75 c 0 0 -31.75 38.5 -71.5 40.25 z m 47 90.25 s -10.5 3 -9.5 -7.5 c 0 0 2.5 -23.75 -6.75 -38.75 c 0 0 8 -3.75 16.25 -4.5 c 0 0 -7.305 2 -11.527 6.5 c 0 0 6.479 10.75 6.003 36 c 0 0 -0.957 7.33 5.524 8.25 z" style="stroke: none; stroke-width: 1; stroke-dasharray: none; stroke-linecap: butt; stroke-linejoin: miter; stroke-miterlimit: 10; fill: #f5f5f5; fill-rule: nonzero; opacity: 1;" transform=" matrix(0.9999976622785315 0 0 0.9999976622785315 -342.72719879739657 -179.42358055666324) " stroke-linecap="round" />
  <path d="M 381.578 339.482 s 10.938 -6.03 15.925 -4.732 c 0 0 -8.83 3.329 -13.925 8.5 l -2 -3.768 z" style="stroke: none; stroke-width: 1; stroke-dasharray: none; stroke-linecap: butt; stroke-linejoin: miter; stroke-miterlimit: 10; fill: #f5f5f5; fill-rule: nonzero; opacity: 1;" transform=" matrix(0.9999976622785315 0 0 0.9999976622785315 -342.72719879739657 -179.42358055666324) " stroke-linecap="round" />
</g>
</svg>